<svg xmlns:xlink="http://www.w3.org/1999/xlink" preserveAspectRatio="xMaxYMax meet" width="17" height="10" version="1.1" viewBox="0 0 17 10" fill="none" xmlns="http://www.w3.org/2000/svg" shape-rendering="crispEdges"><path d="M12.0451 2.54596L13.0408 3.69179C13.1548 3.82049 13.2558 3.92636 13.2967 3.98655C13.5945 4.27639 13.7614 4.66814 13.7612 5.07632C13.7332 5.55794 13.4128 5.88591 13.1161 6.2367L12.4193 7.03796L12.0558 7.4531C12.0428 7.46742 12.0344 7.48511 12.0317 7.50401C12.0289 7.52286 12.032 7.54214 12.0404 7.55933C12.0489 7.57656 12.0624 7.59101 12.0793 7.60091C12.0961 7.61082 12.1156 7.61573 12.1354 7.61502H15.7676C16.3225 7.61502 17.0214 8.07171 16.9805 8.76499C16.9794 9.08014 16.8492 9.38202 16.6183 9.60484C16.3875 9.82767 16.0747 9.95334 15.7483 9.95442H10.0601C9.68596 9.95442 8.67952 9.99388 8.39779 9.1532C8.33786 8.97749 8.3297 8.78922 8.37411 8.60931C8.45601 8.34332 8.58559 8.09319 8.75691 7.87036C9.04294 7.45518 9.35263 7.04004 9.658 6.63735C10.0515 6.11007 10.4558 5.59944 10.8537 5.06179C10.8678 5.04431 10.8755 5.02275 10.8755 5.00056C10.8755 4.97838 10.8678 4.95686 10.8537 4.93933L9.40852 3.27871C9.39913 3.26667 9.38693 3.25691 9.37295 3.25018C9.35892 3.24346 9.34354 3.23996 9.3279 3.23996C9.31226 3.23996 9.29683 3.24346 9.28285 3.25018C9.26887 3.25691 9.25667 3.26667 9.24723 3.27871C8.86014 3.78313 7.16554 6.01666 6.80425 6.46918C6.44296 6.9217 5.55267 6.94663 5.06018 6.46918L2.79998 4.27922C2.78554 4.26523 2.76713 4.25574 2.74707 4.25187C2.72701 4.248 2.70622 4.24996 2.68733 4.25753C2.66843 4.26511 2.65229 4.27789 2.64095 4.29433C2.62961 4.31077 2.62359 4.33009 2.62364 4.34982V8.56156C2.62896 8.86048 2.53727 9.15345 2.36141 9.3995C2.18555 9.64555 1.93435 9.83233 1.643 9.93369C1.45683 9.99621 1.25787 10.0149 1.06271 9.98814C0.867548 9.96141 0.68184 9.88998 0.521067 9.77992C0.360297 9.66982 0.229122 9.52421 0.138481 9.35525C0.0478401 9.18629 0.000360063 8.99889 0 8.80862V1.23614C0.0129571 0.963244 0.114685 0.701236 0.290728 0.487339C0.466773 0.27344 0.708177 0.118536 0.980636 0.0446363C1.21435 -0.0154643 1.46037 -0.0148629 1.69377 0.0463792C1.92716 0.107621 2.13964 0.227328 2.30966 0.393369L5.78489 3.75199C5.7953 3.76219 5.80792 3.77006 5.82182 3.77504C5.83572 3.78001 5.85059 3.78198 5.86534 3.78079C5.88013 3.7796 5.89445 3.77529 5.90729 3.76816C5.92016 3.76103 5.93126 3.75126 5.93976 3.73953L8.40854 0.441114C8.52265 0.307209 8.66566 0.198998 8.82763 0.124057C8.9896 0.0491161 9.16657 0.0092578 9.34617 0.00727264H15.7676C15.9434 0.00755228 16.117 0.0440477 16.2769 0.114319C16.4369 0.18459 16.5795 0.287018 16.6951 0.41475C16.8107 0.542482 16.8968 0.692574 16.9475 0.854991C16.9982 1.0174 17.0124 1.1884 16.9891 1.35653C16.9439 1.6482 16.7906 1.91413 16.5577 2.10499C16.3247 2.29584 16.028 2.39868 15.7225 2.39443H12.1268C12.1087 2.39485 12.0911 2.39994 12.0758 2.40917C12.0604 2.41841 12.0479 2.43144 12.0396 2.44691C12.0312 2.46238 12.0274 2.47973 12.0283 2.49716C12.0293 2.51458 12.0351 2.53143 12.0451 2.54596Z" fill="#E42575"></path></svg>