<svg width="63" height="63" viewBox="0 0 63 63" fill="none" xmlns="http://www.w3.org/2000/svg">
<path d="M50.5526 19.597L20.5871 13.1612C19.1447 12.8514 17.7254 13.744 17.4232 15.1509L11.3797 43.2898C11.0775 44.6967 12.0052 46.0934 13.4476 46.4031L43.4131 52.839C44.8555 53.1488 46.2749 52.2562 46.577 50.8493L52.6205 22.7104C52.9227 21.3035 51.9951 19.9068 50.5526 19.597ZM39.8042 39.9429C39.3768 41.9326 36.9237 43.3484 34.3206 43.1061C31.722 42.86 29.9386 41.1581 30.3659 39.1684C30.7935 37.1775 33.2466 35.7617 35.8461 36.0031C37.6186 36.1738 38.4663 36.922 38.4663 36.922L40.0874 29.3741C40.2904 28.4292 39.1693 28.5432 39.1693 28.5432L29.0899 29.4055C29.0899 29.4055 27.9225 29.5478 27.7325 30.4328L25.7145 39.8283C25.2862 41.8227 23.0293 43.2623 20.4212 43.0668C17.8076 42.8738 16.0159 41.2095 16.4435 39.2187C16.8709 37.229 19.3328 35.7721 21.9458 35.9686C23.7227 36.1009 24.3886 36.7757 24.3886 36.7757L26.7521 25.7709C27.0239 24.5056 28.3548 23.4147 29.7299 23.3306L41.1103 22.4372C42.4856 22.3531 43.3762 23.312 43.1044 24.5773L39.8043 39.943L39.8042 39.9429Z" fill="white"/>
<circle cx="31.5" cy="31.5" r="29.5" stroke="white" stroke-opacity="0.14" stroke-width="4"/>
</svg>
