<svg width="24" height="18" viewBox="0 0 24 18" fill="none" xmlns="http://www.w3.org/2000/svg">
<path fill-rule="evenodd" clip-rule="evenodd" d="M23.5545 2.25391C23.5545 1.14934 22.659 0.253906 21.5545 0.253906H1.9989C0.894332 0.253906 -0.00109847 1.14933 -0.00109851 2.2539L-0.00109863 4.98406C-0.00109868 6.08863 0.894332 6.98406 1.9989 6.98406L21.5545 6.98407C22.659 6.98407 23.5545 6.08864 23.5545 4.98407V2.25391ZM23.5545 13C23.5545 11.8954 22.659 11 21.5545 11L1.9989 11C0.894332 11 -0.00109847 11.8954 -0.00109851 13L-0.00109863 15.7302C-0.00109868 16.8347 0.894332 17.7302 1.9989 17.7302L21.5545 17.7302C22.659 17.7302 23.5545 16.8347 23.5545 15.7302V13Z" fill="#83FF49"/>
</svg>
