<svg width="24" height="25" viewBox="0 0 24 25" fill="none" xmlns="http://www.w3.org/2000/svg">
<path fill-rule="evenodd" clip-rule="evenodd" d="M10.5555 0.301758C9.45095 0.301758 8.55552 1.19719 8.55552 2.30176V9.55565H2.14282C1.03825 9.55565 0.142822 10.4511 0.142822 11.5556L0.142822 14.2858C0.142822 15.3904 1.03825 16.2858 2.14282 16.2858H8.55552V22.6986C8.55552 23.8032 9.45095 24.6986 10.5555 24.6986H13.2857C14.3902 24.6986 15.2857 23.8032 15.2857 22.6986V16.2858H21.6984C22.8029 16.2858 23.6984 15.3904 23.6984 14.2858V11.5557C23.6984 10.4511 22.8029 9.55565 21.6984 9.55565H15.2857V2.30176C15.2857 1.19719 14.3902 0.301758 13.2857 0.301758H10.5555Z" fill="#952CFF"/>
</svg>
