<svg width="17" height="13" viewBox="0 0 17 13" fill="none" xmlns="http://www.w3.org/2000/svg">
<path d="M13.5934 1.03188C12.5667 0.547875 11.4733 0.203871 10.3266 0.00253773C10.3133 0.00253773 10.2734 0.00251675 10.2734 0.0225163C10.1267 0.285183 9.98 0.607872 9.87333 0.870539C8.62 0.689206 7.39332 0.689206 6.19332 0.870539C6.08665 0.607872 5.92673 0.27585 5.76673 0.0225163C5.75339 0.0118494 5.72667 -0.00679588 5.71334 0.00253773C4.72667 0.203871 3.46007 0.567875 2.44674 1.03188C2.44674 1.03188 2.43339 1.0332 2.43339 1.04254C0.326725 4.20254 -0.219967 7.23989 0.0733662 10.2692C0.0733662 10.2786 0.0867256 10.2986 0.100059 10.3092C1.46006 11.3279 2.79341 11.9545 4.11341 12.3585C4.12674 12.3585 4.15328 12.3585 4.15328 12.3372C4.47328 11.9132 4.75329 11.4692 4.99329 10.9945C5.00662 10.9652 4.99342 10.9239 4.96676 10.9239C4.52676 10.7426 4.09999 10.5519 3.69999 10.3185C3.67333 10.2985 3.67333 10.2479 3.69999 10.2279C3.79333 10.1572 3.87341 10.0959 3.95341 10.0359C3.96675 10.0159 3.97997 10.0159 4.00663 10.0265C6.6333 11.2372 9.4867 11.2372 12.0734 10.0265C12.0734 10.0159 12.1001 10.0159 12.1134 10.0265C12.1934 10.0972 12.2733 10.1572 12.3533 10.2279C12.3933 10.2479 12.3933 10.2985 12.3533 10.3185C11.9666 10.5519 11.5534 10.7426 11.1134 10.9239C11.0734 10.9346 11.06 10.9652 11.0734 10.9945C11.3134 11.4692 11.5934 11.9132 11.9 12.3372C11.9134 12.3585 11.9267 12.3585 11.9534 12.3585C13.2734 11.9439 14.5933 11.3279 15.9799 10.3092C15.9799 10.2986 15.9933 10.2879 15.9933 10.2585C16.3266 6.75585 15.4334 3.72787 13.6201 1.04254C13.6201 1.0332 13.6067 1.02252 13.5934 1.02252V1.03188ZM5.36666 8.43186C4.55333 8.43186 3.91337 7.69455 3.91337 6.78655C3.91337 5.87722 4.55333 5.14121 5.36666 5.14121C6.17999 5.14121 6.81995 5.87722 6.81995 6.78655C6.81995 7.69455 6.17999 8.43186 5.36666 8.43186ZM10.7267 8.43186C9.91335 8.43186 9.2734 7.69455 9.2734 6.78655C9.2734 5.87722 9.91335 5.14121 10.7267 5.14121C11.54 5.14121 12.18 5.87722 12.18 6.78655C12.18 7.69455 11.54 8.43186 10.7267 8.43186Z" fill="#FBFF49"/>
</svg>
