<svg width="18" height="11" viewBox="0 0 18 11" fill="none" xmlns="http://www.w3.org/2000/svg">
<path d="M12.344 2.77231L13.3653 4.01897C13.4853 4.16297 13.5907 4.27631 13.6307 4.34165C13.936 4.66165 14.1054 5.0883 14.1054 5.52963C14.0774 6.0563 13.7493 6.41097 13.444 6.79497L12.7333 7.66831L12.3587 8.12163C12.3441 8.13497 12.3374 8.15231 12.332 8.17498C12.332 8.19498 12.3374 8.21498 12.3414 8.23231C12.3507 8.25098 12.3653 8.27232 12.3813 8.27898C12.3987 8.28832 12.4173 8.29632 12.4413 8.29632H16.1654C16.7307 8.29632 17.4534 8.79364 17.408 9.54831C17.408 9.89498 17.2734 10.2216 17.0361 10.4616C16.7987 10.7043 16.4773 10.8416 16.1427 10.8416H10.312C9.92935 10.8416 8.89736 10.8843 8.60669 9.96966C8.54802 9.78032 8.53868 9.57631 8.58268 9.37631C8.66535 9.08698 8.79733 8.81763 8.97599 8.57496C9.26799 8.12163 9.58803 7.66831 9.90137 7.23231C10.304 6.65898 10.7173 6.099 11.128 5.51633C11.14 5.495 11.1453 5.4723 11.1453 5.44964C11.1453 5.42697 11.14 5.40164 11.128 5.38164L9.64266 3.57496C9.63466 3.5603 9.62405 3.5443 9.60539 3.5403C9.59205 3.5323 9.57736 3.53232 9.56136 3.53232C9.54536 3.53232 9.52801 3.5323 9.51335 3.5403C9.50001 3.5443 9.48804 3.5603 9.47738 3.57496C9.08138 4.12163 7.34536 6.55367 6.97469 7.04567C6.60402 7.539 5.68932 7.56833 5.18799 7.04567L2.8667 4.66163C2.85337 4.6483 2.83601 4.6363 2.81201 4.6323C2.79335 4.62696 2.772 4.63232 2.75334 4.63632C2.73734 4.64832 2.71472 4.66164 2.70272 4.68031C2.69205 4.69364 2.68669 4.7163 2.68669 4.7363V9.3283C2.69202 9.65097 2.60003 9.96966 2.4187 10.2403C2.24003 10.5057 1.98398 10.7097 1.68132 10.8217C1.49065 10.8897 1.28405 10.9083 1.08805 10.8803C0.888053 10.8523 0.697316 10.7763 0.531982 10.6537C0.367982 10.5337 0.232024 10.379 0.141357 10.191C0.0440241 10.0083 0 9.80298 0 9.59498V1.34966C0.008 1.04966 0.116061 0.766965 0.296061 0.534965C0.477395 0.301631 0.725383 0.130996 1.00138 0.0509958C1.24538 -0.0170042 1.49605 -0.0170042 1.73071 0.0509958C1.97338 0.117662 2.19198 0.248325 2.36532 0.429659L5.93205 4.08697C5.93871 4.1003 5.95472 4.10563 5.96672 4.11496C5.98005 4.12163 5.99468 4.12163 6.01335 4.12163C6.02668 4.12163 6.04002 4.11498 6.05469 4.10564C6.06669 4.09764 6.07734 4.08698 6.08667 4.07232L8.62004 0.480318C8.7347 0.333651 8.88405 0.216304 9.04671 0.133637C9.21205 0.0563041 9.39602 0.0123025 9.58268 0.00696913H16.1654C16.344 0.00696913 16.5227 0.0509642 16.6854 0.126964C16.8494 0.202964 16.996 0.316323 17.1147 0.452323C17.2307 0.589656 17.324 0.756303 17.3747 0.932303C17.4227 1.10697 17.4427 1.29897 17.4147 1.47763C17.3694 1.79763 17.2161 2.0843 16.9734 2.29363C16.7361 2.5043 16.4294 2.61232 16.116 2.61232H12.432C12.4147 2.61232 12.3947 2.61633 12.3761 2.62566C12.3654 2.635 12.3507 2.64965 12.3414 2.66432C12.3321 2.68165 12.332 2.70165 12.332 2.72165C12.332 2.74032 12.3373 2.76031 12.344 2.77231Z" fill="#FF54A7"/>
</svg>
