<svg width="16" height="13" viewBox="0 0 16 13" fill="none" xmlns="http://www.w3.org/2000/svg">
<path d="M14.9214 1.48002C14.6747 1.59069 14.4281 1.68133 14.1814 1.752C14.4774 1.40666 14.704 1.00267 14.8427 0.557335C14.872 0.454668 14.8427 0.34401 14.764 0.282676C14.684 0.21201 14.5761 0.21199 14.4881 0.262657C13.9441 0.586657 13.3721 0.820013 12.7694 0.961347C12.1574 0.344013 11.328 2.1611e-06 10.4787 2.1611e-06C8.67204 2.1611e-06 7.20136 1.50935 7.20136 3.36402C7.20136 3.50535 7.21071 3.65733 7.22138 3.79867C4.98004 3.596 2.89605 2.46136 1.47471 0.658694C1.41471 0.59736 1.33601 0.566693 1.25735 0.566693C1.17868 0.57736 1.10936 0.618692 1.06936 0.698692C0.77336 1.20536 0.625349 1.79202 0.625349 2.38135C0.625349 3.19068 0.902712 3.96135 1.40538 4.56002C1.24805 4.50802 1.09873 4.43733 0.960066 4.36666C0.892066 4.31599 0.793397 4.31599 0.724063 4.36666C0.645397 4.40666 0.596052 4.488 0.596052 4.58C0.596052 4.58933 0.596052 4.60933 0.596052 4.62C0.596052 5.836 1.22801 6.92135 2.20535 7.50802C2.11601 7.50802 2.03735 7.49867 1.94802 7.47734C1.86935 7.45734 1.78004 7.48802 1.72138 7.56002C1.66138 7.62002 1.64273 7.72132 1.67206 7.80266C2.02673 8.94799 2.95608 9.79867 4.07074 10.052C3.14274 10.6507 2.08673 10.964 0.970727 10.964C0.74406 10.964 0.50672 10.944 0.280053 10.924C0.172053 10.904 0.0533699 10.9747 0.0133699 11.0867C-0.0252967 11.1973 0.0226948 11.3187 0.121361 11.3893C1.54403 12.3227 3.2014 12.8187 4.89073 12.8187C8.22806 12.8187 10.3214 11.2067 11.476 9.84933C12.9267 8.16666 13.7573 5.928 13.7573 3.71867C13.7573 3.628 13.7573 3.53602 13.7573 3.44536C14.3293 3.00002 14.8227 2.46136 15.2174 1.85336C15.2774 1.75202 15.2774 1.63069 15.208 1.54936C15.1387 1.45869 15.0201 1.42802 14.9214 1.48002Z" fill="#FBFF49"/>
</svg>
